<svg width="79" height="49" viewBox="0 0 79 49" fill="none" xmlns="http://www.w3.org/2000/svg">
<path d="M0.392 24.564C0.392 17.1827 1.71467 11.4013 4.36 7.22C7.048 3.03866 11.4853 0.947998 17.672 0.947998C23.8587 0.947998 28.2747 3.03866 30.92 7.22C33.608 11.4013 34.952 17.1827 34.952 24.564C34.952 31.988 33.608 37.812 30.92 42.036C28.2747 46.26 23.8587 48.372 17.672 48.372C11.4853 48.372 7.048 46.26 4.36 42.036C1.71467 37.812 0.392 31.988 0.392 24.564ZM26.12 24.564C26.12 21.4067 25.9067 18.7613 25.48 16.628C25.096 14.452 24.2853 12.6813 23.048 11.316C21.8533 9.95066 20.0613 9.268 17.672 9.268C15.2827 9.268 13.4693 9.95066 12.232 11.316C11.0373 12.6813 10.2267 14.452 9.8 16.628C9.416 18.7613 9.224 21.4067 9.224 24.564C9.224 27.8067 9.416 30.5373 9.8 32.756C10.184 34.932 10.9947 36.7027 12.232 38.068C13.4693 39.3907 15.2827 40.052 17.672 40.052C20.0613 40.052 21.8747 39.3907 23.112 38.068C24.3493 36.7027 25.16 34.932 25.544 32.756C25.928 30.5373 26.12 27.8067 26.12 24.564ZM41.383 39.412V32.372L62.311 2.42H72.743V31.604H78.375V39.412H72.743V48.5H63.783V39.412H41.383ZM64.359 12.02L51.239 31.604H64.359V12.02Z" fill="#EFEFEF"/>
</svg>
