<svg width="57" height="49" viewBox="0 0 57 49" fill="none" xmlns="http://www.w3.org/2000/svg">
<path d="M0.392 24.564C0.392 38.196 4.488 48.372 17.672 48.372C30.856 48.372 34.952 38.196 34.952 24.564C34.952 11.06 30.856 0.947998 17.672 0.947998C4.488 0.947998 0.392 11.06 0.392 24.564ZM26.12 24.564C26.12 32.884 25.224 40.052 17.672 40.052C10.12 40.052 9.224 32.884 9.224 24.564C9.224 16.564 10.12 9.268 17.672 9.268C25.224 9.268 26.12 16.564 26.12 24.564ZM46.887 48.5H56.103V1.844H40.679V10.1H46.887V48.5Z" fill="#EFEFEF"/>
</svg>
