<svg width="73" height="49" viewBox="0 0 73 49" fill="none" xmlns="http://www.w3.org/2000/svg">
<path d="M0.392 24.564C0.392 38.196 4.488 48.372 17.672 48.372C30.856 48.372 34.952 38.196 34.952 24.564C34.952 11.06 30.856 0.947998 17.672 0.947998C4.488 0.947998 0.392 11.06 0.392 24.564ZM26.12 24.564C26.12 32.884 25.224 40.052 17.672 40.052C10.12 40.052 9.224 32.884 9.224 24.564C9.224 16.564 10.12 9.268 17.672 9.268C25.224 9.268 26.12 16.564 26.12 24.564ZM41.895 14.132H50.663C50.983 11.188 52.839 8.372 57.191 8.372C61.287 8.372 63.527 10.548 63.527 14.196C63.527 18.804 59.687 20.276 54.439 20.276H52.583V27.636H54.439C61.095 27.636 64.423 29.556 64.423 34.804C64.423 38.516 62.119 41.332 57.639 41.332C52.839 41.332 50.151 38.452 49.959 34.42H41.255C41.639 44.212 48.615 48.82 57.831 48.82C67.623 48.82 72.999 43.188 72.999 35.572C72.999 29.236 69.863 25.396 65.127 23.924V23.668C68.519 22.516 72.167 18.932 72.167 13.108C72.167 6.196 67.047 0.755997 57.447 0.755997C48.487 0.755997 42.343 5.492 41.895 14.132Z" fill="#EFEFEF"/>
</svg>
