<svg width="73" height="49" viewBox="0 0 73 49" fill="none" xmlns="http://www.w3.org/2000/svg">
<path d="M0.392 24.564C0.392 17.1827 1.71467 11.4013 4.36 7.22C7.048 3.03866 11.4853 0.947998 17.672 0.947998C23.8587 0.947998 28.2747 3.03866 30.92 7.22C33.608 11.4013 34.952 17.1827 34.952 24.564C34.952 31.988 33.608 37.812 30.92 42.036C28.2747 46.26 23.8587 48.372 17.672 48.372C11.4853 48.372 7.048 46.26 4.36 42.036C1.71467 37.812 0.392 31.988 0.392 24.564ZM26.12 24.564C26.12 21.4067 25.9067 18.7613 25.48 16.628C25.096 14.452 24.2853 12.6813 23.048 11.316C21.8533 9.95066 20.0613 9.268 17.672 9.268C15.2827 9.268 13.4693 9.95066 12.232 11.316C11.0373 12.6813 10.2267 14.452 9.8 16.628C9.416 18.7613 9.224 21.4067 9.224 24.564C9.224 27.8067 9.416 30.5373 9.8 32.756C10.184 34.932 10.9947 36.7027 12.232 38.068C13.4693 39.3907 15.2827 40.052 17.672 40.052C20.0613 40.052 21.8747 39.3907 23.112 38.068C24.3493 36.7027 25.16 34.932 25.544 32.756C25.928 30.5373 26.12 27.8067 26.12 24.564ZM44.583 38.388C48.679 34.9747 51.943 32.1373 54.375 29.876C56.807 27.572 58.8337 25.1827 60.455 22.708C62.0763 20.2333 62.887 17.8013 62.887 15.412C62.887 13.236 62.375 11.5293 61.351 10.292C60.327 9.05466 58.7483 8.436 56.615 8.436C54.4817 8.436 52.839 9.16133 51.687 10.612C50.535 12.02 49.9377 13.9613 49.895 16.436H41.191C41.3617 11.316 42.8763 7.43333 45.735 4.788C48.6363 2.14266 52.3057 0.819996 56.743 0.819996C61.607 0.819996 65.3403 2.12133 67.943 4.724C70.5457 7.284 71.847 10.676 71.847 14.9C71.847 18.228 70.951 21.4067 69.159 24.436C67.367 27.4653 65.319 30.1107 63.015 32.372C60.711 34.5907 57.703 37.2787 53.991 40.436H72.871V47.86H41.255V41.204L44.583 38.388Z" fill="#EFEFEF"/>
</svg>
